<svg height="32" width="32" xmlns="http://www.w3.org/2000/svg" viewBox="0 0 294.843 294.843" xml:space="preserve"><path d="M147.421 0C66.133 0 0 66.133 0 147.421c0 40.968 17.259 80.425 47.351 108.255a6 6 0 0 0 8.147-8.81C27.854 221.3 12 185.054 12 147.421 12 72.75 72.75 12 147.421 12s135.421 60.75 135.421 135.421-60.75 135.421-135.421 135.421a6 6 0 0 0 0 12c81.289 0 147.421-66.133 147.421-147.421S228.71 0 147.421 0z"/><path d="M84.185 90.185h126.473a6 6 0 0 0 0-12H84.185a6 6 0 0 0 0 12zM84.185 153.421h126.473a6 6 0 0 0 0-12H84.185a6 6 0 0 0 0 12zM216.658 210.658a6 6 0 0 0-6-6H84.185a6 6 0 0 0 0 12h126.473a6 6 0 0 0 6-6z"/></svg>