<svg width="32" height="32" viewBox="0 0 20 20" xmlns="http://www.w3.org/2000/svg"><path d="M3.465.465a5 5 0 0 0 0 7.07l.707-.707a4 4 0 0 1 0-5.656L3.465.465zm10.07 0-.707.707a4 4 0 0 1 0 5.656l.707.707a5 5 0 0 0 0-7.07zM4.88 1.879a3 3 0 0 0 0 4.242l.707-.707a2 2 0 0 1 0-2.828l-.707-.707zm7.242 0-.707.707a2 2 0 0 1 0 2.828l.707.707a3 3 0 0 0 0-4.242zM7 2v8.293l-1.5-1.5-1.762 1.762.135.511.166.5.195.495.223.476.25.467.277.45.305.433.328.412.354.394.373.373.396.35.25.23.229.254.2.274.175.293.144.31.114.32.082.33.048.339.018.34V20h7v-3.555l.014-.324.047-.322.074-.315.103-.308.131-.297.154-.31.145-.317.12-.328.09-.334.067-.342.041-.344.014-.347V9.139L10 7.14V2H7zm1 1h1v4.861l6 2v2.696l-.016.324-.045.32-.074.317-.103.308-.133.295-.154.31-.143.317-.12.328-.09.334-.07.342-.04.346-.014.347v2.557H9v-.897l-.016-.394-.052-.39-.086-.385-.12-.375-.152-.364-.181-.351-.213-.33-.24-.313-.268-.289-.293-.266-.383-.341-.361-.366-.336-.388-.31-.407-.286-.43-.258-.443-.226-.46-.198-.475-.167-.484.646-.647 2.5 2.5V3z" style="fill:#222;fill-opacity:1;stroke:none;stroke-width:0"/></svg>