<svg xmlns="http://www.w3.org/2000/svg" width="194" height="193" fill="#10498f"><path fill="#10498f" d="m177.175 97.327 13.417.881-.341 5.18a5.487 5.487 0 0 1-.047.437 3.473 3.473 0 0 1-.089.5c-.152.694-.436 1.272-.853 1.731a3.561 3.561 0 0 1-1.507 1.014 4.718 4.718 0 0 1-1.945.256 4.707 4.707 0 0 1-1.885-.507 3.71 3.71 0 0 1-1.37-1.213c-.347-.51-.551-1.116-.611-1.818a7.165 7.165 0 0 1-.013-.946l.251-3.81-5.097-.335.09-1.37Zm6.311 1.79-.248 3.773c-.007.112-.009.243-.007.393.003.15.015.297.037.442.069.466.234.854.494 1.165.26.316.578.559.953.727.376.174.771.275 1.188.302.416.028.821-.021 1.216-.144a2.577 2.577 0 0 0 1.05-.596c.298-.273.513-.637.642-1.09.041-.141.069-.285.085-.434.022-.148.037-.278.044-.39l.248-3.773-5.702-.375ZM175.465 111.022c.148-.745.407-1.344.776-1.798.368-.447.8-.752 1.295-.913a2.972 2.972 0 0 1 1.531-.086c.537.106.974.304 1.31.593.341.296.597.655.767 1.076.169.427.268.9.298 1.42.023.525.02 1.099-.009 1.722a41.58 41.58 0 0 1-.107 1.834 59.09 59.09 0 0 0-.095 1.581l-.199-.535c.974.213 1.735.167 2.284-.136.549-.304.921-.947 1.116-1.93.135-.677.096-1.282-.116-1.812-.213-.525-.63-.948-1.252-1.268l.645-1.233c.84.402 1.437.993 1.789 1.774.353.781.421 1.718.203 2.81-.179.904-.502 1.636-.969 2.197-.462.568-1.04.92-1.733 1.055a3.374 3.374 0 0 1-1.009.047 10.706 10.706 0 0 1-1.091-.159l-6.145-1.221.238-1.2 2.482.493-.216.319c-.782-.504-1.325-1.155-1.63-1.952-.305-.796-.359-1.689-.163-2.678Zm1.132.386c-.125.629-.121 1.201.012 1.716.132.515.365.955.699 1.319.34.366.748.641 1.226.825.303.136.643.245 1.02.326.384.083.67.143.859.18l-.367.46c.03-.47.068-.979.113-1.529.045-.543.079-1.082.103-1.617.022-.528.02-1.011-.008-1.448a3.772 3.772 0 0 0-.177-.882 1.91 1.91 0 0 0-.438-.763c-.206-.213-.485-.354-.839-.424a1.816 1.816 0 0 0-.876.045c-.297.093-.566.281-.807.563-.241.288-.414.698-.52 1.229ZM172.589 122.097c.306-.889.759-1.587 1.357-2.095.598-.508 1.337-.81 2.217-.908.879-.091 1.892.04 3.04.394.508.152 1.049.348 1.625.588.582.242 1.126.498 1.633.767.507.269.908.523 1.202.76.385.3.719.656 1.001 1.066.286.418.486.857.601 1.316.124.449.177.927.157 1.433a10.796 10.796 0 0 1-.162 1.561 50.428 50.428 0 0 1-.303 1.573c-.11.521-.193 1.009-.247 1.463l-1.225-.255c.045-.346.115-.749.211-1.209a41.2 41.2 0 0 0 .274-1.455c.092-.508.151-1.004.176-1.488a4.414 4.414 0 0 0-.105-1.296c-.128-.576-.44-1.091-.937-1.548-.498-.45-1.115-.832-1.85-1.146.449.559.716 1.188.803 1.887a4.781 4.781 0 0 1-.232 2.119c-.29.861-.737 1.535-1.341 2.021a4.093 4.093 0 0 1-2.132.887c-.815.1-1.677-.003-2.586-.309-.949-.321-1.715-.786-2.298-1.396a4.155 4.155 0 0 1-1.118-2.121c-.155-.807-.075-1.677.239-2.609Zm1.215.518c-.338 1.003-.282 1.869.168 2.599.449.735 1.192 1.278 2.23 1.628 1.062.358 1.991.369 2.787.033.795-.33 1.357-.984 1.687-1.963.33-.98.277-1.835-.16-2.567-.436-.732-1.185-1.276-2.247-1.634-1.062-.358-1.988-.378-2.778-.06-.791.318-1.353.973-1.687 1.964ZM168.602 131.785c.445-.898 1.028-1.565 1.75-1.999.722-.434 1.527-.643 2.416-.627.888.015 1.798.254 2.729.715.948.47 1.694 1.054 2.237 1.754.543.699.855 1.465.936 2.297.084.84-.092 1.701-.529 2.582-.447.904-1.032 1.573-1.754 2.007a4.286 4.286 0 0 1-2.407.632c-.882-.013-1.789-.25-2.721-.712-.948-.469-1.698-1.052-2.249-1.749a4.354 4.354 0 0 1-.944-2.301c-.084-.84.094-1.707.536-2.599Zm1.18.584c-.497 1.004-.535 1.916-.114 2.735.426.823 1.172 1.498 2.238 2.025 1.093.541 2.086.724 2.979.548.89-.171 1.582-.755 2.077-1.754.334-.675.457-1.309.368-1.901-.086-.584-.346-1.119-.779-1.605-.43-.477-.997-.889-1.7-1.237-1.088-.539-2.085-.72-2.992-.544-.901.179-1.594.757-2.077 1.733ZM164.104 140.288l7.331 4.894 1.986-2.974 1.056.705-4.734 7.09-1.056-.705 1.986-2.974-7.331-4.894.762-1.142ZM158.172 147.846c.494-.576 1.014-.971 1.558-1.185.54-.209 1.066-.263 1.577-.16.511.102.97.327 1.376.676.416.356.699.743.85 1.16.152.425.199.863.14 1.313a4.536 4.536 0 0 1-.437 1.384c-.238.469-.522.967-.852 1.496-.33.537-.661 1.052-.994 1.546-.333.502-.619.945-.859 1.33l.09-.563c.743.663 1.429.997 2.056 1.002.627.005 1.267-.373 1.92-1.134.45-.524.713-1.07.788-1.636.072-.562-.084-1.135-.469-1.719l1.167-.758c.535.763.765 1.571.689 2.424-.076.853-.477 1.703-1.202 2.548-.6.7-1.241 1.179-1.923 1.439a2.896 2.896 0 0 1-2.028.069 3.412 3.412 0 0 1-.902-.454 10.964 10.964 0 0 1-.873-.675l-4.755-4.08.797-.928 1.92 1.648-.344.172c-.434-.824-.588-1.657-.463-2.501.125-.844.516-1.649 1.173-2.414Zm.797.893c-.418.486-.695.986-.832 1.5a3.043 3.043 0 0 0-.039 1.493c.117.485.338.925.664 1.32.197.267.44.529.729.785.294.26.514.453.66.579l-.546.22c.257-.395.54-.82.849-1.277.306-.451.6-.904.883-1.358.279-.45.514-.872.704-1.266.125-.27.218-.555.279-.856a1.923 1.923 0 0 0-.007-.88c-.075-.285-.25-.546-.524-.781a1.818 1.818 0 0 0-.784-.39c-.306-.065-.632-.033-.98.095-.352.133-.704.405-1.056.816ZM150.044 156.239c.735-.654 1.517-1.058 2.346-1.213.824-.15 1.648-.063 2.471.263.823.326 1.588.886 2.296 1.681.733.823 1.219 1.665 1.46 2.526.241.86.241 1.689.001 2.486-.245.802-.73 1.525-1.456 2.171-.744.662-1.532 1.055-2.363 1.178-.828.129-1.66-.006-2.496-.403-.837-.397-1.637-1.048-2.4-1.952l1.046-.931.323.363c.888.96 1.755 1.509 2.603 1.646.842.142 1.65-.131 2.421-.818.809-.72 1.196-1.535 1.161-2.445-.04-.907-.492-1.846-1.357-2.817-.844-.949-1.714-1.496-2.609-1.64-.896-.136-1.739.148-2.53.851-.539.48-.899 1.021-1.08 1.624-.181.611-.179 1.255.007 1.931l-1.285.481c-.286-.921-.299-1.821-.041-2.701.258-.871.752-1.631 1.482-2.281Zm6.164 1.126.764.858-5.754 5.121-.764-.858 5.754-5.121ZM145.145 160.855l5.537 8.427-1.022.672-7.818-4.74 1.24 9.062-1.015.667-5.537-8.428 1.108-.728 3.928 5.977-1.095-7.838.725-.477 6.76 4.116-3.927-5.977 1.116-.733ZM126.718 170.787c.874-.347 1.698-.459 2.473-.337.775.122 1.486.485 2.134 1.089.642.606 1.203 1.46 1.684 2.562.216.483.42 1.021.614 1.615.196.599.357 1.178.483 1.738.127.56.196 1.029.208 1.407.023.488-.029.972-.156 1.454a4.082 4.082 0 0 1-.606 1.313c-.26.388-.587.739-.983 1.054-.4.323-.83.622-1.29.895a47.59 47.59 0 0 1-1.39.796c-.467.256-.891.512-1.271.767l-.605-1.095c.292-.192.643-.401 1.055-.629.411-.227.839-.474 1.281-.741.445-.261.859-.54 1.243-.836a4.42 4.42 0 0 0 .914-.925c.353-.472.541-1.045.563-1.719.016-.672-.096-1.389-.338-2.151a3.676 3.676 0 0 1-.907 1.839 4.765 4.765 0 0 1-1.757 1.206c-.843.342-1.645.442-2.407.301a4.089 4.089 0 0 1-2.063-1.037c-.607-.553-1.091-1.274-1.451-2.163-.377-.928-.524-1.812-.441-2.652.077-.837.37-1.581.879-2.23.511-.644 1.223-1.151 2.134-1.521Zm.4 1.259c-.981.398-1.601 1.005-1.861 1.822-.265.82-.192 1.737.219 2.753.421 1.038 1.019 1.75 1.793 2.134.768.387 1.631.387 2.588-.001.958-.389 1.572-.987 1.842-1.795.27-.808.195-1.731-.226-2.769-.421-1.039-1.01-1.754-1.767-2.146-.756-.391-1.619-.391-2.588.002ZM116.86 174.063c.97-.251 1.856-.245 2.657.017.8.262 1.485.734 2.054 1.416.569.682.983 1.527 1.244 2.533.265 1.025.311 1.971.137 2.839-.174.868-.549 1.605-1.126 2.21-.58.614-1.347 1.043-2.299 1.29-.976.252-1.865.248-2.666-.014a4.299 4.299 0 0 1-2.052-1.408c-.567-.676-.981-1.517-1.241-2.524-.265-1.024-.315-1.973-.148-2.845a4.364 4.364 0 0 1 1.123-2.22c.58-.613 1.353-1.044 2.317-1.294Zm.33 1.275c-1.085.28-1.799.848-2.144 1.702-.343.861-.366 1.866-.068 3.017.306 1.181.817 2.052 1.534 2.612.712.562 1.606.703 2.685.424.729-.188 1.289-.51 1.679-.965.386-.447.621-.993.705-1.638.079-.638.02-1.337-.176-2.096-.304-1.175-.82-2.048-1.546-2.619-.725-.564-1.614-.71-2.669-.437ZM111.191 175.756l.143 1.196c-.379-.023-.658.026-.838.148a.95.95 0 0 0-.373.571 5.108 5.108 0 0 0-.122.946 39.72 39.72 0 0 0-.028 2.034c.007.739.033 1.551.076 2.436.038.892.087 1.874.147 2.945l-6.805.817-1.202-10.012 1.354-.163 1.045 8.705 4.19-.503c-.035-.66-.064-1.318-.086-1.974a101.66 101.66 0 0 1-.049-1.893c-.016-.6-.02-1.155-.012-1.664.008-.508.027-.949.058-1.323.045-.563.141-1.02.287-1.37.14-.349.382-.597.728-.746.346-.148.842-.198 1.487-.15ZM95.467 176.634c.983.015 1.833.246 2.548.693.709.447 1.256 1.068 1.643 1.865.386.796.571 1.727.554 2.791-.017 1.102-.228 2.051-.632 2.848-.405.797-.965 1.407-1.681 1.832-.723.425-1.57.63-2.54.615-.996-.016-1.842-.259-2.538-.731-.697-.465-1.219-1.127-1.567-1.985-.347-.858-.497-1.878-.447-3.06l1.4.021-.007.486c.004 1.307.272 2.298.803 2.972.525.675 1.305 1.02 2.338 1.036 1.083.016 1.919-.322 2.509-1.017.583-.694.885-1.692.905-2.993.02-1.269-.251-2.26-.813-2.972-.568-.706-1.381-1.068-2.44-1.084-.721-.011-1.352.144-1.893.466-.547.327-.98.803-1.301 1.427l-1.272-.515c.412-.871 1.01-1.543 1.796-2.017.78-.467 1.658-.693 2.635-.678Zm3.78 4.998-.018 1.148-7.703-.119.018-1.148 7.702.119ZM84.518 175.736c.973.147 1.783.49 2.432 1.029.642.538 1.102 1.228 1.377 2.069.276.841.334 1.788.175 2.84-.165 1.09-.501 2.002-1.01 2.737-.507.736-1.145 1.266-1.911 1.59-.773.324-1.64.413-2.6.268-.985-.149-1.79-.504-2.417-1.065-.627-.554-1.056-1.28-1.285-2.177-.23-.897-.24-1.928-.033-3.093l1.385.209-.073.48c-.17 1.297-.038 2.315.398 3.054.43.739 1.155 1.185 2.177 1.34 1.07.162 1.945-.061 2.622-.67.672-.61 1.105-1.558 1.3-2.844.19-1.256.054-2.274-.407-3.055-.468-.776-1.225-1.243-2.271-1.402-.714-.108-1.36-.039-1.94.207-.585.252-1.079.665-1.48 1.24l-1.191-.681c.525-.808 1.209-1.394 2.05-1.758.835-.358 1.736-.464 2.702-.318Zm3.074 5.461-.172 1.135-7.616-1.152.172-1.136 7.616 1.153ZM71.277 172.852l-3.763 11.304 2.882-.645-.487 1.462-2.878.635-1.32-.439 4.246-12.757 1.32.44ZM62.776 169.174c.75.351 1.345.842 1.785 1.474.434.629.686 1.324.756 2.085.068.767-.074 1.525-.425 2.275l-2.215 4.737c-.35.749-.84 1.342-1.47 1.776a4.284 4.284 0 0 1-2.089.765c-.766.067-1.525-.074-2.275-.425s-1.342-.841-1.776-1.47a4.262 4.262 0 0 1-.76-2.098c-.071-.761.07-1.516.42-2.266l2.215-4.737c.35-.75.842-1.344 1.473-1.784a4.284 4.284 0 0 1 2.094-.753c.761-.07 1.517.07 2.267.421Zm-.562 1.201a2.922 2.922 0 0 0-1.54-.277 3.093 3.093 0 0 0-1.444.531 2.905 2.905 0 0 0-1 1.191l-2.27 4.855a2.928 2.928 0 0 0-.278 1.541c.05.525.224 1.005.523 1.439.295.441.694.779 1.196 1.013a2.868 2.868 0 0 0 1.544.269 3.013 3.013 0 0 0 1.44-.522c.435-.299.77-.699 1.005-1.201l2.27-4.854a2.91 2.91 0 0 0 .273-1.532 3.09 3.09 0 0 0-.519-1.449 2.934 2.934 0 0 0-1.2-1.004ZM53.687 164.712l-.705.976c-.263-.274-.502-.427-.716-.459a.949.949 0 0 0-.662.167 5.038 5.038 0 0 0-.73.613c-.438.436-.905.928-1.4 1.476a63.638 63.638 0 0 0-1.595 1.843 233.96 233.96 0 0 0-1.888 2.265l-5.557-4.012 5.902-8.176 1.105.798-5.131 7.109 3.421 2.47a102.408 102.408 0 0 1 2.523-2.935c.395-.452.768-.862 1.118-1.231.35-.369.664-.68.94-.934.414-.384.794-.655 1.139-.813.34-.162.686-.18 1.04-.055.356.126.754.425 1.196.898ZM41.758 154.94c.716.675 1.187 1.418 1.413 2.231.221.808.206 1.636-.047 2.485-.253.848-.744 1.659-1.475 2.433-.756.802-1.552 1.36-2.388 1.675-.837.315-1.662.387-2.477.217-.82-.174-1.583-.594-2.29-1.261-.724-.683-1.184-1.434-1.38-2.252-.199-.813-.138-1.653.185-2.521.323-.869.901-1.722 1.735-2.561l1.02.961-.334.353c-.88.968-1.35 1.88-1.413 2.736-.068.852.274 1.633 1.026 2.342.787.743 1.633 1.057 2.537.943.9-.118 1.795-.651 2.688-1.597.871-.924 1.34-1.838 1.406-2.743.058-.904-.298-1.719-1.068-2.445-.525-.496-1.096-.807-1.712-.935-.624-.127-1.265-.069-1.923.175l-.591-1.238c.892-.365 1.788-.457 2.687-.276.89.181 1.69.607 2.401 1.278Zm-.584 6.239-.788.835-5.603-5.286.788-.836 5.603 5.287ZM35.014 148.229l-6.813 5.592 2.268 2.764-.981.806-5.408-6.59.982-.805 2.268 2.764 6.814-5.592.87 1.061ZM16.043 97.217l-13.43-.622.24-5.186c.006-.13.019-.277.039-.438a3.47 3.47 0 0 1 .08-.5c.137-.698.41-1.28.819-1.748a3.566 3.566 0 0 1 1.487-1.043 4.718 4.718 0 0 1 1.94-.294c.696.033 1.327.19 1.894.471a3.717 3.717 0 0 1 1.393 1.187c.357.502.572 1.104.646 1.805a6.958 6.958 0 0 1 .03.946l-.176 3.815 5.102.236-.064 1.371ZM9.7 95.55l.175-3.777a4.796 4.796 0 0 0 0-.393 3.388 3.388 0 0 0-.045-.441c-.078-.465-.25-.85-.517-1.155a2.581 2.581 0 0 0-.967-.709 3.308 3.308 0 0 0-1.193-.28 3.307 3.307 0 0 0-1.213.169 2.57 2.57 0 0 0-1.038.615c-.294.28-.5.647-.622 1.102a2.566 2.566 0 0 0-.076.436c-.02.149-.032.28-.037.391l-.175 3.778 5.708.264ZM17.483 83.539c-.134.747-.381 1.351-.742 1.811-.36.455-.785.767-1.277.939a2.98 2.98 0 0 1-1.53.115c-.538-.096-.979-.286-1.32-.568a2.79 2.79 0 0 1-.788-1.061 4.55 4.55 0 0 1-.325-1.415 19.461 19.461 0 0 1-.024-1.72c.011-.631.036-1.243.072-1.838a58.86 58.86 0 0 0 .065-1.582l.209.531c-.977-.194-1.738-.134-2.28.18-.544.314-.903.964-1.08 1.95-.121.681-.071 1.284.15 1.811.224.52.65.935 1.277 1.243l-.621 1.245c-.848-.385-1.456-.965-1.823-1.739-.368-.774-.453-1.71-.257-2.806.162-.907.471-1.645.927-2.215a2.89 2.89 0 0 1 1.713-1.088c.31-.071.645-.093 1.007-.066.362.026.727.073 1.095.138l6.167 1.104-.215 1.204-2.491-.446.21-.323c.79.49 1.347 1.13 1.667 1.92.32.791.391 1.683.214 2.676Zm-1.14-.365c.113-.632.099-1.203-.044-1.716a3.04 3.04 0 0 0-.724-1.305 3.234 3.234 0 0 0-1.242-.801 5.106 5.106 0 0 0-1.026-.307c-.385-.075-.673-.13-.863-.164l.359-.467c-.02.47-.049.981-.084 1.531a43.355 43.355 0 0 0-.071 1.619c-.013.529-.001 1.012.034 1.448.03.296.094.589.194.879.094.288.245.54.453.754.21.209.492.344.848.408.287.051.579.03.874-.062.296-.099.561-.291.796-.578.235-.293.401-.706.496-1.24ZM20.121 72.43c-.29.894-.728 1.6-1.317 2.12-.588.518-1.321.835-2.2.949-.876.108-1.892-.004-3.046-.337a16.478 16.478 0 0 1-1.636-.556 19.203 19.203 0 0 1-1.648-.737c-.511-.26-.917-.505-1.216-.737a4.775 4.775 0 0 1-1.02-1.047 4.067 4.067 0 0 1-.625-1.304 4.666 4.666 0 0 1-.185-1.43c.006-.514.05-1.035.132-1.564.085-.535.176-1.06.274-1.578.1-.523.173-1.013.22-1.468l1.229.232c-.038.347-.101.751-.188 1.213-.088.462-.17.949-.246 1.46-.083.51-.133 1.006-.149 1.49-.016.485.027.917.13 1.295.138.573.46 1.082.965 1.53.507.44 1.131.81 1.872 1.11a3.677 3.677 0 0 1-.838-1.87 4.783 4.783 0 0 1 .191-2.124c.274-.867.709-1.549 1.303-2.046a4.097 4.097 0 0 1 2.115-.927c.814-.115 1.677-.028 2.591.26.956.303 1.73.754 2.324 1.353a4.158 4.158 0 0 1 1.158 2.099c.17.805.107 1.676-.19 2.613Zm-1.224-.496c.319-1.008.246-1.874-.218-2.595-.462-.727-1.215-1.256-2.26-1.586-1.068-.338-1.997-.331-2.787.02-.788.345-1.338 1.01-1.65 1.995-.31.985-.241 1.84.209 2.563.45.723 1.21 1.254 2.278 1.591 1.068.338 1.994.34 2.778.008.785-.333 1.334-.999 1.65-1.996ZM23.93 62.606c-.429.906-1 1.583-1.713 2.03-.714.448-1.515.672-2.404.673-.888 0-1.802-.221-2.742-.665-.957-.452-1.713-1.023-2.269-1.712-.556-.689-.882-1.449-.978-2.279-.1-.839.06-1.703.48-2.592.43-.912 1.003-1.592 1.717-2.04a4.294 4.294 0 0 1 2.394-.676c.883-.003 1.794.218 2.734.661.957.452 1.718 1.021 2.282 1.707.558.684.887 1.445.987 2.284.1.838-.064 1.708-.489 2.609Zm-1.191-.563c.478-1.013.5-1.925.063-2.737-.441-.814-1.2-1.475-2.275-1.982-1.103-.521-2.1-.685-2.989-.493-.887.187-1.568.784-2.043 1.792-.322.681-.433 1.317-.333 1.908.096.583.366 1.112.808 1.59.44.469 1.014.87 1.723 1.206 1.098.518 2.098.68 3.002.488.897-.196 1.579-.786 2.044-1.771ZM28.06 54.338l-7.436-4.731-1.92 3.017-1.071-.682 4.576-7.192 1.071.682-1.92 3.017 7.437 4.731-.737 1.158ZM33.937 46.48c-.484.585-.996.99-1.536 1.213-.537.219-1.061.282-1.574.19a2.982 2.982 0 0 1-1.388-.652c-.422-.349-.713-.73-.871-1.144a2.792 2.792 0 0 1-.164-1.31 4.55 4.55 0 0 1 .412-1.393c.229-.473.504-.976.825-1.51.32-.544.641-1.065.966-1.564.323-.509.6-.957.834-1.346l-.08.564c-.755-.649-1.447-.97-2.074-.963-.627.006-1.26.395-1.899 1.168-.44.532-.693 1.082-.758 1.65-.062.563.105 1.133.5 1.71l-1.153.78c-.549-.753-.793-1.557-.733-2.412.06-.854.446-1.711 1.156-2.57.587-.71 1.22-1.2 1.896-1.473a2.89 2.89 0 0 1 2.026-.106c.305.09.608.237.91.438.303.201.598.42.885.659l4.829 3.992-.78.943-1.95-1.613.342-.178c.448.815.618 1.646.508 2.492-.11.846-.486 1.658-1.129 2.435Zm-.813-.878c.409-.494.677-1 .805-1.515a3.04 3.04 0 0 0 .011-1.494 3.235 3.235 0 0 0-.688-1.307 5.098 5.098 0 0 0-.743-.772 61.552 61.552 0 0 0-.67-.567l.542-.23c-.25.4-.525.83-.826 1.292-.297.457-.583.915-.858 1.374-.27.455-.498.881-.681 1.279-.12.272-.208.559-.263.86-.06.298-.053.591.023.88.08.284.26.541.538.771.225.187.489.312.791.376.306.06.632.022.978-.112.349-.14.696-.418 1.041-.835ZM41.723 38.051c-.72.67-1.493 1.091-2.319 1.264-.82.168-1.646.099-2.476-.21-.83-.307-1.608-.85-2.333-1.63-.75-.807-1.255-1.638-1.514-2.493-.26-.855-.278-1.684-.055-2.486.227-.806.696-1.54 1.408-2.201.729-.679 1.508-1.089 2.337-1.23.824-.146 1.66-.03 2.504.348.845.38 1.66 1.012 2.442 1.9l-1.026.953-.33-.355c-.909-.94-1.788-1.47-2.638-1.59-.846-.123-1.647.168-2.404.871-.793.738-1.162 1.561-1.107 2.47.06.906.532 1.834 1.418 2.787.865.93 1.746 1.458 2.645 1.583.898.116 1.735-.186 2.51-.906.53-.492.877-1.041 1.045-1.647.167-.615.151-1.259-.05-1.931l1.274-.509c.306.914.34 1.814.1 2.7-.238.876-.716 1.647-1.431 2.312Zm-6.188-.99-.782-.842 5.642-5.245.781.84-5.64 5.246ZM46.514 33.297l-5.722-8.303L41.8 24.3l7.92 4.566-1.439-9.032 1-.689 5.721 8.304-1.092.752-4.058-5.89 1.267 7.813-.715.493-6.849-3.967 4.058 5.89-1.1.758ZM64.533 22.998c-.865.367-1.687.498-2.464.393-.778-.105-1.497-.452-2.158-1.041-.656-.592-1.236-1.433-1.74-2.524a16.516 16.516 0 0 1-.651-1.6c-.21-.595-.384-1.17-.522-1.727-.14-.557-.219-1.025-.24-1.402a4.772 4.772 0 0 1 .124-1.457c.12-.492.312-.935.576-1.327.251-.393.57-.752.96-1.075.392-.332.815-.64 1.269-.925a50.6 50.6 0 0 1 1.372-.826c.46-.267.879-.532 1.253-.795l.63 1.08c-.288.2-.635.417-1.04.653-.407.237-.829.493-1.265.77-.44.27-.847.559-1.224.864-.377.305-.675.62-.893.945-.343.48-.517 1.057-.524 1.731-.002.672.127 1.386.386 2.142a3.678 3.678 0 0 1 .865-1.858 4.785 4.785 0 0 1 1.73-1.246c.835-.36 1.634-.478 2.4-.354a4.097 4.097 0 0 1 2.086.99c.619.54 1.119 1.25 1.499 2.13.397.92.563 1.8.5 2.642a4.158 4.158 0 0 1-.83 2.25c-.496.655-1.196 1.177-2.099 1.567Zm-.427-1.25c.971-.419 1.578-1.04 1.819-1.863.247-.825.153-1.74-.281-2.747-.444-1.028-1.057-1.726-1.84-2.094-.776-.37-1.64-.35-2.588.06-.948.41-1.549 1.022-1.8 1.835-.253.814-.157 1.736.288 2.764.444 1.03 1.048 1.73 1.814 2.105.765.375 1.628.355 2.588-.06ZM74.59 19.377c-.965.27-1.85.28-2.656.034-.805-.247-1.499-.707-2.08-1.378-.582-.671-1.013-1.507-1.292-2.509-.285-1.019-.348-1.964-.19-2.835.157-.871.518-1.615 1.082-2.232.57-.624 1.328-1.068 2.275-1.333.971-.27 1.86-.283 2.665-.036.81.24 1.503.695 2.078 1.368.58.666 1.01 1.499 1.29 2.5.284 1.02.352 1.967.202 2.842a4.363 4.363 0 0 1-1.081 2.24c-.569.625-1.333 1.07-2.292 1.339Zm-.353-1.268c1.079-.302 1.783-.883 2.111-1.743.327-.867.33-1.873.01-3.018-.327-1.175-.855-2.036-1.583-2.583-.722-.548-1.62-.672-2.692-.373-.726.203-1.28.535-1.66.997-.378.455-.603 1.005-.674 1.652-.067.639.005 1.336.216 2.092.326 1.169.858 2.032 1.595 2.589.735.55 1.627.68 2.677.387ZM80.285 17.524l-.167-1.193c.38.017.658-.038.835-.163a.95.95 0 0 0 .363-.579c.058-.26.092-.575.103-.948.014-.617.01-1.296-.01-2.034a62.085 62.085 0 0 0-.123-2.434c-.056-.891-.123-1.872-.204-2.942l6.788-.947 1.394 9.987-1.35.188-1.212-8.683-4.18.584a100.925 100.925 0 0 1 .21 3.864c.027.6.041 1.154.043 1.662.002.51-.009.95-.032 1.325-.034.564-.121 1.022-.26 1.375a1.313 1.313 0 0 1-.715.76c-.343.154-.837.214-1.483.178ZM95.598 16.322c-.983.007-1.838-.204-2.563-.634-.72-.43-1.281-1.04-1.686-1.827-.404-.787-.61-1.713-.619-2.777-.008-1.102.18-2.056.566-2.862.386-.806.932-1.43 1.639-1.87.712-.442 1.554-.666 2.525-.674.996-.008 1.847.216 2.554.671.707.45 1.244 1.099 1.612 1.949.367.85.54 1.866.518 3.049l-1.4.01-.004-.485c-.035-1.307-.326-2.291-.872-2.953-.54-.662-1.328-.989-2.361-.98-1.083.008-1.911.366-2.485 1.074-.567.707-.846 1.712-.836 3.013.01 1.27.304 2.254.882 2.953.585.692 1.406 1.035 2.464 1.027.722-.006 1.35-.176 1.882-.51.54-.34.962-.826 1.268-1.457l1.283.485c-.392.88-.975 1.567-1.749 2.058-.768.486-1.64.732-2.618.74Zm-3.894-4.91-.009-1.148 7.703-.06.009 1.149-7.703.06ZM106.751 16.948c-.975-.129-1.792-.456-2.451-.982a4.435 4.435 0 0 1-1.416-2.042c-.292-.836-.368-1.782-.229-2.837.144-1.092.462-2.01.956-2.756.494-.745 1.121-1.287 1.881-1.626.767-.338 1.632-.444 2.594-.317.988.13 1.8.469 2.437 1.018.638.542 1.08 1.26 1.327 2.152.247.893.277 1.923.092 3.092l-1.389-.183.064-.482c.146-1.299-.006-2.314-.456-3.045-.444-.73-1.178-1.163-2.202-1.298-1.074-.141-1.944.099-2.61.72-.659.623-1.074 1.58-1.244 2.87-.166 1.258-.011 2.274.465 3.046.483.767 1.249 1.22 2.298 1.357.716.095 1.361.013 1.934-.244.581-.262 1.067-.685 1.458-1.268l1.203.658c-.509.818-1.182 1.417-2.016 1.797-.828.374-1.727.498-2.696.37Zm-3.178-5.4.15-1.14 7.637 1.007-.15 1.138-7.637-1.006ZM120.336 19.589l3.549-11.373-2.869.699.459-1.471 2.866-.69 1.328.414-4.005 12.835-1.328-.414ZM128.577 22.937c-.758-.334-1.364-.812-1.818-1.434a4.307 4.307 0 0 1-.802-2.068c-.085-.765.04-1.526.373-2.284l2.109-4.784c.334-.758.81-1.36 1.43-1.809a4.282 4.282 0 0 1 2.071-.811c.765-.085 1.527.04 2.284.373.758.334 1.361.81 1.809 1.43.454.622.723 1.315.808 2.08.087.76-.037 1.518-.371 2.276l-2.108 4.785c-.334.757-.812 1.363-1.433 1.817a4.291 4.291 0 0 1-2.077.799c-.759.087-1.518-.037-2.275-.37Zm.534-1.214a2.926 2.926 0 0 0 1.546.243 3.085 3.085 0 0 0 1.432-.563 2.91 2.91 0 0 0 .974-1.214l2.161-4.904a2.925 2.925 0 0 0 .242-1.546c-.061-.524-.246-1-.554-1.428a2.873 2.873 0 0 0-1.219-.986 2.87 2.87 0 0 0-1.549-.234c-.524.062-1 .247-1.428.555a2.932 2.932 0 0 0-.978 1.222l-2.161 4.904a2.913 2.913 0 0 0-.239 1.538c.062.523.246 1.002.551 1.436.308.428.715.754 1.222.977ZM137.886 27.22l.683-.991c.269.268.511.416.726.443a.951.951 0 0 0 .659-.181c.218-.152.457-.362.716-.63.428-.445.884-.947 1.367-1.506a61.602 61.602 0 0 0 1.555-1.878c.561-.694 1.174-1.462 1.837-2.305l5.644 3.888-5.721 8.304-1.123-.773 4.974-7.22-3.475-2.394a109.399 109.399 0 0 1-2.457 2.99c-.385.46-.749.878-1.091 1.255-.343.376-.649.694-.919.954-.406.393-.78.672-1.121.838-.336.169-.682.195-1.04.077-.357-.118-.762-.408-1.214-.87ZM149.991 36.672c-.73-.66-1.217-1.393-1.461-2.2-.239-.803-.241-1.632-.007-2.485.234-.854.708-1.676 1.421-2.466.739-.817 1.523-1.393 2.352-1.726.829-.333 1.653-.423 2.472-.271.823.156 1.595.56 2.316 1.21.739.668 1.215 1.409 1.428 2.222.218.809.175 1.65-.129 2.525s-.863 1.74-1.679 2.598l-1.04-.939.326-.36c.857-.987 1.309-1.91 1.353-2.766.049-.853-.31-1.626-1.077-2.319-.803-.726-1.656-1.022-2.557-.888-.896.139-1.781.69-2.652 1.656-.852.942-1.3 1.866-1.347 2.772-.037.906.336 1.713 1.122 2.422.536.484 1.113.783 1.731.897.627.114 1.267.041 1.92-.217l.617 1.225c-.884.384-1.777.496-2.68.335-.894-.162-1.704-.57-2.429-1.225Zm.449-6.25.769-.853 5.717 5.163-.77.852-5.716-5.162ZM156.934 43.244l6.69-5.739-2.329-2.714.964-.827 5.551 6.47-.964.827-2.328-2.714-6.69 5.739-.894-1.042Z"/><g clip-path="url(#a)"><path fill="#10498f" d="M79.031 55.021c-.438.308-.728.788-.765 1.254-.014.2.238 1.215 1.183 4.767.663 2.477 1.287 4.93 1.391 5.446.783 4.031.527 8.143-.737 11.973-.683 2.062-1.308 3.359-3.132 6.461l-1.246 2.131-10.78 2.902-10.78 2.909-.284.274c-.305.3-.484.667-.514 1.056-.02.203 1.04 4.213 5.437 20.644l5.462 20.384.252.287c.281.319.598.493 1.037.566.282.047 1.297-.225 32.864-8.697l32.567-8.747.572-.337c2.508-1.482 3.902-4.142 3.678-7.023-.033-.426-.115-.806-.318-1.487-.328-1.076-.547-1.487-1.429-2.714-.332-.455-.599-.847-.588-.856.009-.016.327-.367.698-.773.868-.947 1.166-1.347 1.512-1.997.931-1.768 1.113-3.763.506-5.65-.294-.92-.589-1.468-1.376-2.564-.325-.457-.6-.853-.609-.885-.008-.032.318-.426.733-.87.407-.45.882-1.02 1.045-1.267 1.326-1.935 1.634-4.542.794-6.693-.297-.757-.623-1.317-1.374-2.354l-.53-.743.239-.268c1.506-1.642 1.891-2.195 2.321-3.263.312-.778.523-1.882.523-2.74.001-.626-.026-.776-.315-1.855-.346-1.29-.491-1.605-1.176-2.523-1.246-1.675-3.405-2.825-5.452-2.902-1.189-.05-.713-.163-11.951 2.848-6.699 1.795-10.608 2.815-10.958 2.868-.768.11-1.384.078-2.224-.105-.618-.14-.837-.225-1.559-.651-.953-.555-1.42-.988-1.967-1.821a7.027 7.027 0 0 1-.55-1.044c-.136-.331-.789-2.668-1.805-6.459-1.78-6.642-1.74-6.517-2.553-7.762-.838-1.287-1.76-2.156-3.11-2.938-1.624-.94-3.2-1.327-5.139-1.25-.655.026-.77.05-5.023 1.169-3.571.943-4.393 1.177-4.57 1.3Zm9.997.881c2.352.03 4.252 1.168 5.36 3.213.177.334.457 1.3 2.002 6.916l1.79 6.531.336.598c1.403 2.462 3.606 4.104 6.275 4.662a9.588 9.588 0 0 0 2.487.177l.719-.036 10.913-2.89 10.912-2.89.519.045a4.055 4.055 0 0 1 2.603 1.27c.467.508.728 1.003.92 1.72a3.879 3.879 0 0 1-.032 2.126c-.159.566-.689 1.41-1.116 1.782-.683.605-.763.633-3.366 1.379-2.297.656-2.396.69-2.606.889-.259.246-.491.69-.545 1.044-.016.14.013.425.069.635.258.938 1.172 1.422 2.18 1.152 1.287-.339 2.935.186 3.834 1.225 1.447 1.668 1.318 4.16-.289 5.577-.721.636-.982.746-3.408 1.397-2.326.623-2.466.68-2.804 1.16a2.05 2.05 0 0 0-.257.653c-.063.344-.057.444.072.825.313.89 1.134 1.33 2.06 1.082 1.325-.349 2.95.142 3.889 1.176 1.639 1.807 1.275 4.682-.768 6.033-.351.23-.53.291-2.791.931-2.321.663-2.427.698-2.631.896-.496.466-.66 1.041-.488 1.682.135.502.346.786.784 1.036.391.222.708.246 1.412.125 1.149-.199 2.009-.041 2.947.537.889.545 1.448 1.294 1.722 2.316.175.627.193 1.099.074 1.764a4.036 4.036 0 0 1-1.656 2.567l-.41.287-20.46 5.502-20.467 5.498-5.068-18.911-5.067-18.912 1.48-2.568c1.895-3.291 2.47-4.5 3.203-6.752 1.461-4.482 1.696-9.126.714-13.9-.128-.605-.634-2.62-1.133-4.48l-.907-3.385 3.239-.848c3.082-.799 3.26-.84 3.754-.836Zm-8.427 53.054 4.934 18.416-9.265 2.483-9.265 2.483-4.934-18.417-4.935-18.416 9.265-2.482 9.265-2.483 4.935 18.416Z"/></g><defs><clipPath id="a"><path fill="#10498f" d="m41.32 61.892 88.853-23.808 21.183 79.058-88.852 23.808z"/></clipPath></defs></svg>