<svg width="200" height="100" xmlns="http://www.w3.org/2000/svg"><defs><linearGradient id="b" x1="0" y1="0" x2="1" y2="0"><stop stop-color="#046edb" stop-opacity=".996" offset="0"/><stop stop-color="#NaNNaNNaN" offset="1"/></linearGradient><linearGradient y2="0" x2="1" y1=".125" x1=".051" id="a"><stop offset="0" stop-opacity=".996" stop-color="#046edb"/><stop offset="1" stop-opacity=".699"/></linearGradient></defs><text transform="matrix(2.04241 0 0 2.17104 -276.813 -216.871)" xml:space="preserve" font-family="Noto Sans JP" font-size="24" stroke-width="0" y="131.884" x="178.408" fill="url(#a)" stroke="#000" font-style="italic">HMG</text><g fill="url(#b)" stroke="null"><path d="M35.984 43.786c-9.314 16.85-11.553 55.681-5.522 4.016C36.494-3.864 83.21 13.718 78.596 36.883c-4.615 23.164-11.232 29.064-6.158 12.653 5.074-16.411-25.14-21.616-36.454-5.75z" opacity="undefined"/><path d="M74.036 59.12c9.313-16.849 11.552-55.68 5.52-4.015-6.03 51.666-52.747 34.084-48.133 10.918 4.615-23.163 11.232-29.063 6.159-12.652-5.075 16.41 25.14 21.616 36.454 5.75z" opacity="undefined"/></g></svg>