<svg width="200" height="100" xmlns="http://www.w3.org/2000/svg"><defs><linearGradient id="c" x1="0" y1="0" x2="1" y2="0"><stop stop-color="#046edb" stop-opacity=".996" offset="0"/><stop stop-opacity=".996" stop-color="#fff" offset="1"/></linearGradient><linearGradient id="b" x1="0" y1="0" x2="1" y2="0"><stop stop-color="#046edb" stop-opacity=".996" offset="0"/><stop stop-color="#fff" offset="1"/></linearGradient><linearGradient y2="0" x2="1" y1="0" x1="0" id="a"><stop offset="0" stop-opacity=".996" stop-color="#046edb"/><stop offset="1" stop-opacity=".996" stop-color="#fff"/></linearGradient></defs><text transform="matrix(2.04241 0 0 2.17104 -276.813 -216.871)" xml:space="preserve" font-family="Noto Sans JP" font-size="24" stroke-width="0" y="130.754" x="170.643" fill="url(#a)" stroke="url(#b)">HMG</text><path d="M20.125 41.333c-9.314 16.85-11.553 55.681-5.522 4.016C20.635-6.317 67.35 11.265 62.737 34.43c-4.615 23.164-11.232 29.064-6.158 12.653 5.074-16.411-25.14-21.616-36.454-5.75z" opacity="undefined" fill="url(#c)" stroke="null"/><path transform="rotate(180 41.151 56.5)" d="M24.125 56.333c-9.314 16.85-11.553 55.681-5.522 4.016C24.635 8.683 71.35 26.265 66.737 49.43c-4.615 23.164-11.232 29.064-6.158 12.653 5.074-16.411-25.14-21.616-36.454-5.75z" opacity="undefined" fill="url(#c)" stroke="null"/></svg>