<svg width="200" height="100" xmlns="http://www.w3.org/2000/svg"><defs><linearGradient id="c" x1="0" y1="0" x2="1" y2="0"><stop stop-color="#046edb" stop-opacity=".996" offset="0"/><stop stop-opacity=".996" stop-color="#fff" offset="1"/></linearGradient><linearGradient id="b" x1="0" y1="0" x2="1" y2="0"><stop stop-color="#046edb" stop-opacity=".996" offset="0"/><stop stop-color="#fff" offset="1"/></linearGradient><linearGradient y2="0" x2="1" y1="0" x1="0" id="a"><stop offset="0" stop-opacity=".996" stop-color="#046edb"/><stop offset="1" stop-opacity=".996" stop-color="#fff"/></linearGradient></defs><text transform="matrix(2.04241 0 0 2.17104 -276.813 -216.871)" xml:space="preserve" font-family="Noto Sans JP" font-size="24" stroke-width="0" y="131.884" x="178.408" fill="url(#a)" stroke="url(#b)" font-style="italic">HMG</text><path d="M35.984 43.786c-9.314 16.85-11.553 55.681-5.522 4.016C36.494-3.864 83.21 13.718 78.596 36.883c-4.615 23.164-11.232 29.064-6.158 12.653 5.074-16.411-25.14-21.616-36.454-5.75z" opacity="undefined" fill="url(#c)" stroke="null"/><path transform="rotate(180 57.01 58.953)" d="M39.984 58.786c-9.314 16.85-11.553 55.681-5.522 4.016 6.032-51.666 52.748-34.084 48.134-10.919-4.615 23.164-11.232 29.064-6.158 12.653 5.074-16.411-25.14-21.616-36.454-5.75z" opacity="undefined" fill="url(#c)" stroke="null"/></svg>