<svg width="200" height="100" xmlns="http://www.w3.org/2000/svg"><defs><linearGradient id="a" x1="0" x2="1" y1="0" y2="0"><stop offset="0" stop-color="#046edb"/><stop offset="1" stop-color="#fff"/></linearGradient></defs><g class="layer"><text fill="#fff" font-family="Noto Sans JP" font-size="24" stroke="url(#a)" stroke-width="0" transform="matrix(2.04241 0 0 2.17104 -276.813 -216.871)" x="170.64" xml:space="preserve" y="130.75">HMG</text><path d="M20.13 41.33c-9.32 16.85-11.56 55.68-5.53 4.02 6.04-51.67 52.75-34.08 48.14-10.92-4.62 23.16-11.23 29.06-6.16 12.65 5.07-16.41-25.14-21.61-36.45-5.75z" fill="#fff" opacity="undefined"/><path d="M58.172 56.67c9.32-16.85 11.56-55.68 5.53-4.02-6.04 51.67-52.75 34.08-48.14 10.92 4.62-23.16 11.24-29.06 6.16-12.65-5.07 16.41 25.14 21.61 36.46 5.75h-.01z" fill="#fff" opacity="undefined"/></g></svg>