<svg width="200" height="100" xmlns="http://www.w3.org/2000/svg"><defs><linearGradient id="a" x1=".051" y1=".125" x2="1" y2="0"><stop stop-color="#046edb" stop-opacity=".996" offset="0"/><stop stop-opacity=".699" offset="1"/></linearGradient><linearGradient y2="0" x2="1" y1="0" x1="0" id="b"><stop offset="0" stop-opacity=".996" stop-color="#046edb"/><stop offset="1" stop-color="#NaNNaNNaN"/></linearGradient></defs><text stroke="#000" fill="url(#a)" x="170.643" y="131.215" stroke-width="0" font-size="24" font-family="Noto Sans JP" xml:space="preserve" transform="matrix(2.04241 0 0 2.17104 -276.813 -216.871)">HMG</text><g stroke="null" fill="url(#b)"><path opacity="undefined" d="M20.125 42.333c-9.314 16.85-11.553 55.68-5.522 4.016 6.032-51.666 52.748-34.084 48.134-10.92-4.615 23.165-11.232 29.065-6.158 12.654 5.074-16.411-25.14-21.616-36.454-5.75z"/><path opacity="undefined" d="M58.177 57.667c9.313-16.85 11.552-55.68 5.52-4.015-6.03 51.666-52.747 34.084-48.133 10.918 4.615-23.163 11.232-29.063 6.159-12.652-5.075 16.41 25.14 21.616 36.454 5.75v-.001z"/></g></svg>