<svg height="800" width="800" version="1.1" id="_x32_" xmlns="http://www.w3.org/2000/svg" viewBox="0 0 512 512" xml:space="preserve"><style>.st0{fill:#000}</style><path class="st0" d="M337.469 206.488v-79.735l-42.812 7.654v32.814H217.34v-32.814l-42.809-7.654v79.735h-50.883L65.566 333.609v114.146c0 10.862 8.016 19.668 17.898 19.668H428.53c9.887 0 17.902-8.806 17.902-19.668V333.609l-58.82-127.121h-50.143zM256 410.493c-39.942 0-72.32-32.38-72.32-72.322s32.379-72.322 72.32-72.322 72.32 32.38 72.32 72.322-32.378 72.322-72.32 72.322z"/><path class="st0" d="M434.02 70.476c-38.508-16.331-123.258-25.9-178.02-25.9-53.02 0-139.512 9.568-178.02 25.9C39.016 87 0 123.985 0 167.556c0 23.89 11.906 38.075 14.754 41.373h82.898c4.934 0 15.734-21.419 15.734-30.166 0-15.386-8.148-36.78-8.148-36.78.469-10.588 4.676-18.324 21.918-25.736 31.262-13.438 100.019-14.041 128.844-14.041 28.824 0 97.582.604 128.844 14.041 17.242 7.412 21.449 15.148 21.918 25.736 0 0-8.148 21.394-8.148 36.78 0 8.747 10.801 30.166 15.734 30.166h82.898c2.848-3.298 14.754-17.484 14.754-41.373 0-43.571-39.016-80.556-77.98-97.08z"/></svg>